<?xml version="1.0" encoding="utf-8"?>
<!-- Generator: Adobe Illustrator 18.0.0, SVG Export Plug-In . SVG Version: 6.00 Build 0)  -->
<!DOCTYPE svg PUBLIC "-//W3C//DTD SVG 1.1 Tiny//EN" "http://www.w3.org/Graphics/SVG/1.1/DTD/svg11-tiny.dtd">
<svg version="1.1" baseProfile="tiny" id="Layer_1" xmlns="http://www.w3.org/2000/svg" xmlns:xlink="http://www.w3.org/1999/xlink"
	 x="0px" y="0px" viewBox="0 0 600 200" xml:space="preserve">
<g>
	<rect fill="#FE5000" width="600" height="200"/>
	<g>
		<path fill="#FFFFFF" stroke="#FFFFFF" stroke-miterlimit="10" d="M52,142.5V39.3h11.5v41.6c4.8-4.9,10.2-8.6,16.2-11.1
			c6-2.4,12.5-3.7,19.7-3.7c12.7,0,23.5,3.8,32.5,11.5c9,7.6,13.5,16.9,13.5,27.8c0,10.8-4.5,20-13.6,27.6
			c-9.1,7.6-19.9,11.4-32.7,11.4c-7.3,0-13.9-1.3-19.8-3.9c-5.9-2.6-11.2-6.5-15.7-11.7v13.7H52z M98.1,135.2
			c6.4,0,12.3-1.3,17.8-3.9c5.4-2.6,9.7-6.3,12.9-11.1c3.2-4.7,4.8-9.8,4.8-15.1c0-5.3-1.6-10.3-4.8-15.1c-3.2-4.8-7.6-8.5-13-11.2
			s-11.3-4-17.5-4c-6.3,0-12.3,1.3-18,4s-10,6.3-13.1,10.8c-3,4.5-4.6,9.6-4.6,15.3c0,8.6,3.4,15.8,10.2,21.6
			C79.8,132.3,88.2,135.2,98.1,135.2z"/>
		<path fill="#FFFFFF" stroke="#FFFFFF" stroke-miterlimit="10" d="M233.2,118l10.2,0c-1.6,7.1-7.1,13.5-11.3,16.6
			c-4.2,3.2-8.9,5.6-14.1,7.3c-5.2,1.7-11.1,2.5-17.7,2.5c-14.6,0-26.1-4-34.3-11.9c-8.2-8-12.4-17-12.4-27
			c0-9.4,3.5-17.9,10.5-25.3c8.9-9.4,20.7-14.1,35.5-14.1c15.3,0,27.5,4.8,36.6,14.4c6.5,6.8,9.8,15.3,9.9,25.5h-80.7
			c0.2,8.7,3.5,15.7,10,21.3c6.4,5.5,14.4,8.3,23.8,8.3c4.6,0,9-0.7,13.3-2c4.3-1.3,8-3.1,11-5.3C226.6,126.2,229.7,122.9,233.2,118
			z M233.4,97.8c-1.5-5.1-3.8-9.2-6.7-12.3c-2.9-3.1-6.8-5.5-11.7-7.4c-4.8-1.9-9.9-2.8-15.3-2.8c-8.8,0-16.4,2.4-22.7,7.1
			c-4.6,3.4-8.1,8.6-10.5,15.4H233.4z"/>
		<path fill="#FFFFFF" stroke="#FFFFFF" stroke-miterlimit="10" d="M255.2,142.5V39.3h11.5v41.6c4.8-4.9,10.2-8.6,16.2-11.1
			c6-2.4,12.5-3.7,19.7-3.7c12.7,0,23.5,3.8,32.5,11.5c9,7.6,13.5,16.9,13.5,27.8c0,10.8-4.5,20-13.6,27.6
			c-9.1,7.6-19.9,11.4-32.7,11.4c-7.3,0-13.9-1.3-19.8-3.9c-5.9-2.6-11.2-6.5-15.7-11.7v13.7H255.2z M301.3,135.2
			c6.4,0,12.3-1.3,17.8-3.9c5.4-2.6,9.7-6.3,12.9-11.1c3.2-4.7,4.8-9.8,4.8-15.1c0-5.3-1.6-10.3-4.8-15.1c-3.2-4.8-7.6-8.5-13-11.2
			s-11.3-4-17.5-4c-6.3,0-12.3,1.3-18,4s-10,6.3-13.1,10.8c-3,4.5-4.6,9.6-4.6,15.3c0,8.6,3.4,15.8,10.2,21.6
			C283,132.3,291.4,135.2,301.3,135.2z"/>
		<path fill="#FFFFFF" stroke="#FFFFFF" stroke-miterlimit="10" d="M403.6,66.1c13.8,0,25.3,4.2,34.3,12.5
			c8.3,7.6,12.4,16.5,12.4,26.9c0,10.4-4.4,19.5-13.1,27.3c-8.7,7.8-19.9,11.7-33.6,11.7c-13.8,0-25-3.9-33.7-11.7
			c-8.7-7.8-13.1-16.9-13.1-27.3c0-10.3,4.1-19.3,12.4-26.8C378.2,70.3,389.7,66.1,403.6,66.1z M403.5,75.5
			c-9.6,0-17.8,2.9-24.7,8.8c-6.9,5.9-10.3,13-10.3,21.4c0,5.4,1.6,10.4,4.7,15.1c3.1,4.7,7.4,8.2,12.7,10.8
			c5.3,2.5,11.2,3.8,17.6,3.8c6.4,0,12.3-1.3,17.6-3.8c5.3-2.5,9.6-6.1,12.7-10.8c3.1-4.7,4.7-9.7,4.7-15.1
			c0-8.4-3.5-15.5-10.4-21.4C421.3,78.5,413,75.5,403.5,75.5z"/>
		<path fill="#FFFFFF" stroke="#FFFFFF" stroke-miterlimit="10" d="M458.7,68.1h11.5v13.7c4.6-5.2,9.8-9.1,15.7-11.7
			c5.9-2.6,12.5-3.9,19.8-3.9c12.7,0,23.6,3.8,32.7,11.4c9.1,7.6,13.6,16.8,13.6,27.5c0,11-4.5,20.3-13.5,27.9
			c-9,7.6-19.8,11.5-32.5,11.5c-7.1,0-13.7-1.2-19.7-3.7c-6-2.5-11.4-6.1-16.2-11v40h-11.5V68.1z M504.8,75.4
			c-10,0-18.4,2.9-25.2,8.7c-6.8,5.8-10.2,13-10.2,21.6c0,5.7,1.5,10.7,4.6,15.2c3,4.5,7.4,8.1,13.1,10.7c5.7,2.6,11.7,4,18,4
			c6.2,0,12-1.3,17.5-4c5.5-2.7,9.8-6.4,13-11.2c3.2-4.8,4.8-9.8,4.8-15c0-5.3-1.6-10.3-4.8-15c-3.2-4.7-7.5-8.4-12.9-11
			S511.2,75.4,504.8,75.4z"/>
	</g>
</g>
</svg>
